<svg id="visual" viewBox="0 0 900 600" width="900" height="600" xmlns="http://www.w3.org/2000/svg" xmlns:xlink="http://www.w3.org/1999/xlink" version="1.1"><path d="M0 247L82 247L82 139L164 139L164 223L245 223L245 115L327 115L327 271L409 271L409 157L491 157L491 169L573 169L573 271L655 271L655 151L736 151L736 109L818 109L818 145L900 145L900 241L900 0L900 0L818 0L818 0L736 0L736 0L655 0L655 0L573 0L573 0L491 0L491 0L409 0L409 0L327 0L327 0L245 0L245 0L164 0L164 0L82 0L82 0L0 0Z" fill="#c25d55"></path><path d="M0 355L82 355L82 301L164 301L164 331L245 331L245 319L327 319L327 379L409 379L409 283L491 283L491 403L573 403L573 373L655 373L655 367L736 367L736 331L818 331L818 313L900 313L900 373L900 239L900 143L818 143L818 107L736 107L736 149L655 149L655 269L573 269L573 167L491 167L491 155L409 155L409 269L327 269L327 113L245 113L245 221L164 221L164 137L82 137L82 245L0 245Z" fill="#be5048"></path><path d="M0 427L82 427L82 409L164 409L164 511L245 511L245 445L327 445L327 469L409 469L409 427L491 427L491 481L573 481L573 457L655 457L655 439L736 439L736 499L818 499L818 415L900 415L900 433L900 371L900 311L818 311L818 329L736 329L736 365L655 365L655 371L573 371L573 401L491 401L491 281L409 281L409 377L327 377L327 317L245 317L245 329L164 329L164 299L82 299L82 353L0 353Z" fill="#ba433c"></path><path d="M0 517L82 517L82 535L164 535L164 559L245 559L245 511L327 511L327 523L409 523L409 505L491 505L491 529L573 529L573 535L655 535L655 565L736 565L736 547L818 547L818 511L900 511L900 541L900 431L900 413L818 413L818 497L736 497L736 437L655 437L655 455L573 455L573 479L491 479L491 425L409 425L409 467L327 467L327 443L245 443L245 509L164 509L164 407L82 407L82 425L0 425Z" fill="#b53430"></path><path d="M0 601L82 601L82 601L164 601L164 601L245 601L245 601L327 601L327 601L409 601L409 601L491 601L491 601L573 601L573 601L655 601L655 601L736 601L736 601L818 601L818 601L900 601L900 601L900 539L900 509L818 509L818 545L736 545L736 563L655 563L655 533L573 533L573 527L491 527L491 503L409 503L409 521L327 521L327 509L245 509L245 557L164 557L164 533L82 533L82 515L0 515Z" fill="#b02323"></path></svg>